<?xml version="1.0" encoding="UTF-8" standalone="no"?>
<!-- Created with Inkscape (http://www.inkscape.org/) -->

<svg
   xmlns:dc="http://purl.org/dc/elements/1.1/"
   xmlns:cc="http://creativecommons.org/ns#"
   xmlns:rdf="http://www.w3.org/1999/02/22-rdf-syntax-ns#"
   xmlns:svg="http://www.w3.org/2000/svg"
   xmlns="http://www.w3.org/2000/svg"
   xmlns:sodipodi="http://sodipodi.sourceforge.net/DTD/sodipodi-0.dtd"
   xmlns:inkscape="http://www.inkscape.org/namespaces/inkscape"
   width="744.09448819"
   height="1052.3622047"
   id="svg2"
   version="1.1"
   inkscape:version="0.48.5 r10040"
   sodipodi:docname="UV-icon.svg">
  <defs
     id="defs4" />
  <sodipodi:namedview
     id="base"
     pagecolor="#ffffff"
     bordercolor="#666666"
     borderopacity="1.0"
     inkscape:pageopacity="0.0"
     inkscape:pageshadow="2"
     inkscape:zoom="11.313709"
     inkscape:cx="166.8693"
     inkscape:cy="882.91485"
     inkscape:document-units="px"
     inkscape:current-layer="layer1"
     showgrid="false"
     inkscape:window-width="1366"
     inkscape:window-height="719"
     inkscape:window-x="0"
     inkscape:window-y="0"
     inkscape:window-maximized="1" />
  <metadata
     id="metadata7">
    <rdf:RDF>
      <cc:Work
         rdf:about="">
        <dc:format>image/svg+xml</dc:format>
        <dc:type
           rdf:resource="http://purl.org/dc/dcmitype/StillImage" />
        <dc:title></dc:title>
      </cc:Work>
    </rdf:RDF>
  </metadata>
  <g
     inkscape:label="Layer 1"
     inkscape:groupmode="layer"
     id="layer1">
    <g
       style="font-size:40px;font-style:normal;font-weight:normal;line-height:125%;letter-spacing:0px;word-spacing:0px;fill:#000034;fill-opacity:1;stroke:none;font-family:Sans"
       id="flowRoot2985">
      <path
         d="m 157.75781,160.20981 3.96485,0 0,17.71484 c -1e-5,3.12501 0.56639,5.37761 1.69921,6.75782 1.13281,1.36719 2.96874,2.05078 5.50782,2.05078 2.52602,0 4.35545,-0.68359 5.48828,-2.05078 1.13279,-1.38021 1.6992,-3.63281 1.69922,-6.75782 l 0,-17.71484 3.96484,0 0,18.20313 c -2e-5,3.80209 -0.94403,6.67318 -2.83203,8.61328 -1.87502,1.9401 -4.64846,2.91015 -8.32031,2.91015 -3.68491,0 -6.47136,-0.97005 -8.35938,-2.91015 -1.875,-1.9401 -2.8125,-4.81119 -2.8125,-8.61328 l 0,-18.20313"
         style=""
         id="path3000" />
    </g>
    <g
       transform="scale(0.99026835,1.0098273)"
       style="font-size:40.39309311px;font-style:normal;font-weight:normal;line-height:125%;letter-spacing:0px;word-spacing:0px;opacity:0.95;fill:#b380ff;fill-opacity:1;stroke:none;font-family:Sans"
       id="text2993">
      <path
         d="m 168.28946,188.09381 -11.24221,-29.44672 4.16159,0 9.32907,24.79205 9.34879,-24.79205 4.14187,0 -11.2225,29.44672 -4.51661,0"
         style=""
         id="path2997" />
    </g>
  </g>
</svg>
